<svg width="61" height="61" viewBox="0 0 61 61" fill="none" xmlns="http://www.w3.org/2000/svg">
<path d="M56.3613 27.5H5.10356C4.34631 27.5 3.73244 28.3954 3.73244 29.5C3.73244 30.6046 4.34631 31.5 5.10356 31.5H56.3613C57.1186 31.5 57.7324 30.6046 57.7324 29.5C57.7324 28.3954 57.1186 27.5 56.3613 27.5Z" stroke="white" stroke-width="5.5"/>
<path d="M56.3613 53.5H5.287C4.52975 53.5 3.91588 54.3954 3.91588 55.5C3.91588 56.6046 4.52975 57.5 5.287 57.5H56.3613C57.1186 57.5 57.7324 56.6046 57.7324 55.5C57.7324 54.3954 57.1186 53.5 56.3613 53.5Z" stroke="white" stroke-width="5.5"/>
<path d="M56.3613 3.5H5.287C4.52975 3.5 3.91588 4.39543 3.91588 5.5C3.91588 6.60457 4.52975 7.5 5.287 7.5H56.3613C57.1186 7.5 57.7324 6.60457 57.7324 5.5C57.7324 4.39543 57.1186 3.5 56.3613 3.5Z" stroke="white" stroke-width="5.5"/>
</svg>
