<svg width="111" height="77" viewBox="0 0 111 77" fill="none" xmlns="http://www.w3.org/2000/svg">
<g filter="url(#filter0_d_8_2)">
<path d="M6 66.5L24 33.2692M90.5 66.5L78.3113 49.5M24 33.2692L26.8975 27.92C28.9196 24.1869 34.3804 24.5136 35.943 28.4612L38.3333 34.5M24 33.2692L25.0807 40.2802C25.2382 41.3016 26.5439 41.6349 27.1717 40.8139V40.8139C28.827 38.6494 32.2819 39.7159 32.429 42.4369L32.696 47.3759C32.7539 48.4466 34.2632 48.6184 34.5602 47.5881L38.3333 34.5M38.3333 34.5L47.7685 58.3362C49.1948 61.9396 54.0011 62.6206 56.3723 59.5553L64.9245 48.5M64.9245 48.5L67.3929 45.3092C69.4408 42.6618 73.4609 42.735 75.4112 45.4551L78.3113 49.5M64.9245 48.5L68.6124 52.127C69.1038 52.6103 69.893 52.607 70.3803 52.1197L70.8984 51.6016C71.9985 50.5015 73.8232 50.6525 74.7275 51.9186V51.9186C75.1154 52.4615 75.9144 52.4841 76.3323 51.9639L78.3113 49.5M94 14.0476V14.0476C94 12.7534 93.4117 11.5294 92.4011 10.7209L92.0928 10.4742C90.3128 9.05027 87.7607 9.13607 86.0803 10.6763V10.6763C84.4432 12.177 81.862 11.9068 80.5712 10.0997L80.0243 9.33399C78.8078 7.63088 76.6592 6.86566 74.64 7.41636L74.5697 7.43554C73.2481 7.79596 72.1323 8.68278 71.4829 9.88886L69.8019 13.0108C69.2923 13.9571 69.2165 15.0774 69.5939 16.0837V16.0837C70.1389 17.5371 71.5283 18.5 73.0806 18.5H89.114C89.6999 18.5 90.281 18.3946 90.8296 18.1889L91.2356 18.0367C92.8984 17.4131 94 15.8235 94 14.0476ZM106 5.5V63C106 65.7614 103.761 68 101 68H9.5C6.73858 68 4.5 65.7614 4.5 63V5.5C4.5 2.73858 6.73858 0.5 9.5 0.5H101C103.761 0.5 106 2.73858 106 5.5Z" stroke="white" shape-rendering="crispEdges"/>
</g>
<defs>
<filter id="filter0_d_8_2" x="0" y="0" width="110.5" height="76.5" filterUnits="userSpaceOnUse" color-interpolation-filters="sRGB">
<feFlood flood-opacity="0" result="BackgroundImageFix"/>
<feColorMatrix in="SourceAlpha" type="matrix" values="0 0 0 0 0 0 0 0 0 0 0 0 0 0 0 0 0 0 127 0" result="hardAlpha"/>
<feOffset dy="4"/>
<feGaussianBlur stdDeviation="2"/>
<feComposite in2="hardAlpha" operator="out"/>
<feColorMatrix type="matrix" values="0 0 0 0 0 0 0 0 0 0 0 0 0 0 0 0 0 0 0.25 0"/>
<feBlend mode="normal" in2="BackgroundImageFix" result="effect1_dropShadow_8_2"/>
<feBlend mode="normal" in="SourceGraphic" in2="effect1_dropShadow_8_2" result="shape"/>
</filter>
</defs>
</svg>
