<svg width="1920" height="1080" viewBox="0 0 1920 1080" fill="none" xmlns="http://www.w3.org/2000/svg">
<g clip-path="url(#clip0_4_2)">
<rect width="1920" height="1080" fill="url(#paint0_linear_4_2)"/>
<path d="M359 791C115.357 609.007 103.5 933 3 1080H1920V67C1745.5 149 1887.88 267.086 1643 310.5C1282.5 374.411 1612.78 808.479 1147 603C539.5 335 647.5 1006.5 359 791Z" fill="#D9D9D9" style="mix-blend-mode:multiply"/>
<path d="M1290.09 805.39C682.592 537.39 790.592 1208.89 502.092 993.39C349.141 879.14 287.535 964.296 238 1079.89H1920.59V457C1897.78 480.319 1859.19 499.931 1786.09 512.89C1425.59 576.801 1755.87 1010.87 1290.09 805.39Z" fill="#D9D9D9" style="mix-blend-mode:multiply"/>
<path d="M1201.72 714.159C594.218 446.159 702.218 1117.66 413.718 902.159C222.004 758.955 173.801 929.036 113 1079.66H1919.72V213C1831.56 290.626 1909.6 384.095 1697.72 421.659C1337.22 485.571 1667.5 919.639 1201.72 714.159Z" fill="#D9D9D9" style="mix-blend-mode:multiply"/>
</g>
<defs>
<linearGradient id="paint0_linear_4_2" x1="1920" y1="0" x2="1.16229e-05" y2="1080" gradientUnits="userSpaceOnUse">
<stop stop-color="#D87AE8"/>
<stop offset="1" stop-color="#E7DD87"/>
</linearGradient>
<clipPath id="clip0_4_2">
<rect width="1920" height="1080" fill="white"/>
</clipPath>
</defs>
</svg>
